# Blender v2.79 (sub 0) OBJ File: ''
# www.blender.org
mtllib cubfox4.mtl
o Cube
v -1.000000 -1.000000  1.000000 
v 1.000000  -1.000000  1.000000 
v 1.000000  1.000000 1.000000
v -1.000000 1.000000 1.000000

v -1.000000 -1.000000 -1.000000
v -1.000000 1.000000 -1.000000 
v 1.000000 1.000000 -1.000000
v 1.000000 -1.000000 -1.000000

v -1.000000 1.000000 -1.000000
v -1.000000 1.000000 1.000000
v 1.000000 1.000000 1.000000
v  1.000000 1.000000 -1.000000

v -1.000000 -1.000000 -1.000000
v 1.000000 -1.000000 -1.000000
v 1.000000 -1.000000 1.000000
v -1.000000 -1.000000 1.000000

v 1.000000 -1.000000 -1.000000 
v 1.000000 1.000000 -1.000000 
v 1.000000 1.000000 1.000000 
v 1.000000 -1.000000 1.000000 

v -1.000000 -1.000000 -1.000000 
v -1.000000 -1.000000 1.000000
v -1.000000 1.000000 1.000000 
v -1.000000 1.000000 -1.000000 

vt 0.000000 0.000000
vt 1.000000 0.000000
vt 1.000000 1.000000 
vt 0.000000 1.000000 

vt 0.000000 0.000000
vt 1.000000 0.000000
vt 1.000000 1.000000
vt 0.000000 1.000000 

vt 0.000000 0.000000
vt 1.000000 0.000000
vt 1.000000 1.000000 
vt 0.000000 1.000000
 
vt 0.000000 0.000000
vt 1.000000 0.000000
vt 1.000000 1.000000 
vt 0.000000 1.000000
 
vt 0.000000 0.000000
vt 1.000000 0.000000
vt 1.000000 1.000000 
vt 0.000000 1.000000
 
vt 0.000000 0.000000
vt 1.000000 0.000000
vt 1.000000 1.000000 
vt 0.000000 1.000000 


vn 0.0000 0.0000 1.0000
vn 0.0000 0.0000 1.0000
vn 0.0000 0.0000 1.0000
vn 0.0000 0.0000 1.0000

vn 0.0000 0.0000 -1.0000
vn 0.0000 0.0000 -1.0000
vn 0.0000 0.0000 -1.0000
vn 0.0000 0.0000 -1.0000

vn 0.0000 1.0000 0.0000 
vn 0.0000 1.0000 0.0000
vn 0.0000 1.0000 0.0000
vn 0.0000 1.0000 0.0000

vn 0.0000 -1.0000 0.0000 
vn 0.0000 -1.0000 0.0000 
vn 0.0000 -1.0000 0.0000 
vn 0.0000 -1.0000 0.0000 

vn 1.0000 0.0000 0.0000 
vn 1.0000 0.0000 0.0000 
vn 1.0000 0.0000 0.0000 
vn 1.0000 0.0000 0.0000 

vn -1.0000 0.0000 0.0000 
vn -1.0000 0.0000 0.0000 
vn -1.0000 0.0000 0.0000 
vn -1.0000 0.0000 0.0000 

usemtl Material
s off
f 1/1/1 2/2/2 3/3/3 4/4/4
f 5/5/5 6/6/6 7/7/7 8/8/8
f 9/9/9 10/10/10 11/11/11 12/12/12
f 13/13/13 14/14/14 15/15/15 16/16/16
f 17/17/17 18/18/18 19/19/19 20/20/20
f 21/21/21 22/22/22 23/23/23 24/24/24
