# Blender v2.79 (sub 0) OBJ File: ''
# by mionz generator; position arrange in U direction toward normal
# 163 90 25
mtllib obj_flan.mtl
o Cube
#1.front vertex position
v -0.815 0.45 0.125
v -0.815 -0.45 0.125
v 0.815 -0.45 0.125
v 0.815 0.45 0.125

#2.back vertex position
v 0.815 0.45 -0.125
v 0.815 -0.45 -0.125
v -0.815 -0.45 -0.125
v -0.815 0.45 -0.125

#3.left vertex position
v -0.815 0.45 -0.125
v -0.815 -0.45 -0.125
v -0.815 -0.45 0.125
v -0.815 0.45 0.125

#4.right vertex position
v 0.815 0.45 0.125
v 0.815 -0.45 0.125
v 0.815 -0.45 -0.125
v 0.815 0.45 -0.125

#5.top vertex position
v -0.815 0.45 -0.125
v -0.815 0.45 0.125
v 0.815 0.45 0.125
v 0.815 0.45 -0.125

#6.bottom vertex position
v -0.815 -0.45 0.125
v -0.815 -0.45 -0.125
v 0.815 -0.45 -0.125
v 0.815 -0.45 0.125

#1.front texture position
vt 0 1
vt 0 0.833984
vt 0.300781 0.833984
vt 0.300781 1

#2.back texture position
vt 0 0.833984
vt 0 0.667969
vt 0.300781 0.667969
vt 0.300781 0.833984

#3.left texture position
vt 0.300781 1
vt 0.300781 0.833984
vt 0.34668 0.833984
vt 0.34668 1

#4.right texture position
vt 0.300781 0.833984
vt 0.300781 0.667969
vt 0.34668 0.667969
vt 0.34668 0.833984

#5.top texture position
vt 0 0.667969
vt 0 0.62207
vt 0.300781 0.62207
vt 0.300781 0.667969

#6.bottom texture position
vt 0 0.62207
vt 0 0.576172
vt 0.300781 0.576172
vt 0.300781 0.62207

#1.front normal 
vn 0.0000 0.0000 1.0000
vn 0.0000 0.0000 1.0000
vn 0.0000 0.0000 1.0000
vn 0.0000 0.0000 1.0000

#2.back normal 
vn 0.0000 0.0000 -1.0000
vn 0.0000 0.0000 -1.0000
vn 0.0000 0.0000 -1.0000
vn 0.0000 0.0000 -1.0000

#3.left normal 
vn -1.0000 0.0000 0.0000
vn -1.0000 0.0000 0.0000
vn -1.0000 0.0000 0.0000
vn -1.0000 0.0000 0.0000

#4.right normal 
vn 1.0000 0.0000 0.0000
vn 1.0000 0.0000 0.0000
vn 1.0000 0.0000 0.0000
vn 1.0000 0.0000 0.0000

#5.top normal 
vn 0.0000 1.0000 0.0000
vn 0.0000 1.0000 0.0000
vn 0.0000 1.0000 0.0000
vn 0.0000 1.0000 0.0000

#6.bottom normal 
vn 0.0000 -1.0000 0.0000
vn 0.0000 -1.0000 0.0000
vn 0.0000 -1.0000 0.0000
vn 0.0000 -1.0000 0.0000

usemtl Material
s off
f 1/1/1 2/2/2 3/3/3 4/4/4
f 5/5/5 6/6/6 7/7/7 8/8/8
f 9/9/9 10/10/10 11/11/11 12/12/12
f 13/13/13 14/14/14 15/15/15 16/16/16
f 17/17/17 18/18/18 19/19/19 20/20/20
f 21/21/21 22/22/22 23/23/23 24/24/24
