# Blender v2.79 (sub 0) OBJ File: ''
# by mionz generator; position arrange in U direction toward normal
# 1.11 1.11 0.52
mtllib obj_meltykiss.mtl
o Cube
#5.top vertex position
v -0.555 0.555 -0.26
v -0.555 0.555 0.26
v 0.555 0.555 0.26
v 0.555 0.555 -0.26

#1.front vertex position : union direction
v -0.555 0.555 0.26
v -0.555 -0.555 0.26
v 0.555 -0.555 0.26
v 0.555 0.555 0.26

#6.bottom vertex position
v -0.555 -0.555 0.26
v -0.555 -0.555 -0.26
v 0.555 -0.555 -0.26
v 0.555 -0.555 0.26

#2.back vertex position : intersec direction
v -0.555 -0.555 -0.26
v -0.555 0.555 -0.26
v 0.555 0.555 -0.26
v 0.555 -0.555 -0.26

#3.left vertex position
v -0.555 0.555 -0.26
v -0.555 -0.555 -0.26
v -0.555 -0.555 0.26
v -0.555 0.555 0.26

#4.right vertex position
v 0.555 0.555 0.26
v 0.555 -0.555 0.26
v 0.555 -0.555 -0.26
v 0.555 0.555 -0.26

#1.top texture position
vt 0.0957031 1
vt 0.0957031 0.904297
vt 0.300293 0.904297
vt 0.300293 1

#2.front texture position
vt 0.0957031 0.904297
vt 0.0957031 0.699707
vt 0.300293 0.699707
vt 0.300293 0.904297

#3.bottom texture position
vt 0.0957031 0.699707
vt 0.0957031 0.604004
vt 0.300293 0.604004
vt 0.300293 0.699707

#4.back texture position
vt 0.0957031 0.604004
vt 0.0957031 0.399414
vt 0.300293 0.399414
vt 0.300293 0.604004

#5.left texture position
vt 0 0.904297
vt 0 0.699707
vt 0.0957031 0.699707
vt 0.0957031 0.904297

#6.right texture position
vt 0.300293 0.904297
vt 0.300293 0.699707
vt 0.395996 0.699707
vt 0.395996 0.904297

#5.top normal 
vn 0.0000 1.0000 0.0000
vn 0.0000 1.0000 0.0000
vn 0.0000 1.0000 0.0000
vn 0.0000 1.0000 0.0000

#1.front normal 
vn 0.0000 0.0000 1.0000
vn 0.0000 0.0000 1.0000
vn 0.0000 0.0000 1.0000
vn 0.0000 0.0000 1.0000

#6.bottom normal 
vn 0.0000 -1.0000 0.0000
vn 0.0000 -1.0000 0.0000
vn 0.0000 -1.0000 0.0000
vn 0.0000 -1.0000 0.0000

#2.back normal 
vn 0.0000 0.0000 -1.0000
vn 0.0000 0.0000 -1.0000
vn 0.0000 0.0000 -1.0000
vn 0.0000 0.0000 -1.0000

#3.left normal 
vn -1.0000 0.0000 0.0000
vn -1.0000 0.0000 0.0000
vn -1.0000 0.0000 0.0000
vn -1.0000 0.0000 0.0000

#4.right normal 
vn 1.0000 0.0000 0.0000
vn 1.0000 0.0000 0.0000
vn 1.0000 0.0000 0.0000
vn 1.0000 0.0000 0.0000

usemtl Material
s off
f 1/1/1 2/2/2 3/3/3 4/4/4
f 5/5/5 6/6/6 7/7/7 8/8/8
f 9/9/9 10/10/10 11/11/11 12/12/12
f 13/13/13 14/14/14 15/15/15 16/16/16
f 17/17/17 18/18/18 19/19/19 20/20/20
f 21/21/21 22/22/22 23/23/23 24/24/24
