# Blender v2.79 (sub 0) OBJ File: ''
# www.blender.org
mtllib rectanglebox.mtl
o Cube
v -5.93 -3.59  2.26 
v  5.93 -3.59  2.26 
v  5.93  3.59  2.26
v -5.93  3.59  2.26

v -5.93 -3.59 -2.26
v -5.93  3.59 -2.26 
v  5.93  3.59 -2.26
v  5.93 -3.59 -2.26

v -5.93  3.59 -2.26
v -5.93  3.59  2.26
v  5.93  3.59  2.26
v  5.93  3.59 -2.26

v -5.93 -3.59 -2.26
v  5.93 -3.59 -2.26
v  5.93 -3.59  2.26
v -5.93 -3.59  2.26

v  5.93 -3.59 -2.26 
v  5.93  3.59 -2.26 
v  5.93  3.59  2.26 
v  5.93 -3.59  2.26 

v -5.93 -3.59 -2.26 
v -5.93 -3.59  2.26
v -5.93  3.59  2.26 
v -5.93  3.59 -2.26 

#front
vt 0.222300 0.649400
vt 0.798600 0.649400
vt 0.798600 1.000000 
vt 0.222300 1.000000 
#back
vt 0.222300 0.069900 
vt 0.570300 0.069900
vt 0.570300 0.649400
vt 0.222300 0.649400

#top
vt 0.220200 0.647800
vt 0.000000 0.647800 
vt 0.000000 0.071400
vt 0.220200 0.071400
#bottom
vt 0.792300 0.071400
vt 0.792300 0.647800
vt 0.571600 0.647800 
vt 0.571600 0.071400
 
#right 
vt 0.220700 0.651000
vt 0.220700 1.000000
vt 0.000000 1.000000 
vt 0.000000 0.651000


#left
vt 0.798600 0.651000
vt 1.000000 0.651000
vt 1.000000 1.000000
vt 0.798600 1.000000 



vn 0.0000 0.0000 1.0000
vn 0.0000 0.0000 1.0000
vn 0.0000 0.0000 1.0000
vn 0.0000 0.0000 1.0000

vn 0.0000 0.0000 -1.0000
vn 0.0000 0.0000 -1.0000
vn 0.0000 0.0000 -1.0000
vn 0.0000 0.0000 -1.0000

vn 0.0000 1.0000 0.0000 
vn 0.0000 1.0000 0.0000
vn 0.0000 1.0000 0.0000
vn 0.0000 1.0000 0.0000

vn 0.0000 -1.0000 0.0000 
vn 0.0000 -1.0000 0.0000 
vn 0.0000 -1.0000 0.0000 
vn 0.0000 -1.0000 0.0000 

vn 1.0000 0.0000 0.0000 
vn 1.0000 0.0000 0.0000 
vn 1.0000 0.0000 0.0000 
vn 1.0000 0.0000 0.0000 

vn -1.0000 0.0000 0.0000 
vn -1.0000 0.0000 0.0000 
vn -1.0000 0.0000 0.0000 
vn -1.0000 0.0000 0.0000 

usemtl Material
s off
f 1/1/1 2/2/2 3/3/3 4/4/4
f 5/5/5 6/6/6 7/7/7 8/8/8
f 9/9/9 10/10/10 11/11/11 12/12/12
f 13/13/13 14/14/14 15/15/15 16/16/16
f 17/17/17 18/18/18 19/19/19 20/20/20
f 21/21/21 22/22/22 23/23/23 24/24/24
