# Blender v2.79 (sub 0) OBJ File: ''
# www.blender.org
#fail to load in pcl
#ok to load in meshlab
mtllib rectanglemultiple.mtl
g
v -5.93 -3.59  2.26 
v  5.93 -3.59  2.26 
v  5.93  3.59  2.26
v -5.93  3.59  2.26
#front
vt 0.222300 0.649400
vt 0.798600 0.649400
vt 0.798600 1.000000 
vt 0.222300 1.000000
vn 0.0000 0.0000 1.0000
vn 0.0000 0.0000 1.0000
vn 0.0000 0.0000 1.0000
vn 0.0000 0.0000 1.0000
g face1
usemtl Material1
f 1/1/1 2/2/2 3/3/3 4/4/4

g 
v -5.93 -3.59 -2.26
v -5.93  3.59 -2.26 
v  5.93  3.59 -2.26
v  5.93 -3.59 -2.26
#back
vt 0.222300 0.069900 
vt 0.570300 0.069900
vt 0.570300 0.649400
vt 0.222300 0.649400
vn 0.0000 0.0000 -1.0000
vn 0.0000 0.0000 -1.0000
vn 0.0000 0.0000 -1.0000
vn 0.0000 0.0000 -1.0000
g face2
usemtl Material2
f 5/5/5 6/6/6 7/7/7 8/8/8

g
v -5.93  3.59 -2.26
v -5.93  3.59  2.26
v  5.93  3.59  2.26
v  5.93  3.59 -2.26
#top
vt 0.220200 0.647800
vt 0.000000 0.647800 
vt 0.000000 0.071400
vt 0.220200 0.071400
vn 0.0000 1.0000 0.0000 
vn 0.0000 1.0000 0.0000
vn 0.0000 1.0000 0.0000
vn 0.0000 1.0000 0.0000
g face3
usemtl Material3
f 9/9/9 10/10/10 11/11/11 12/12/12

g
v -5.93 -3.59 -2.26
v  5.93 -3.59 -2.26
v  5.93 -3.59  2.26
v -5.93 -3.59  2.26
#bottom
vt 0.792300 0.071400
vt 0.792300 0.647800
vt 0.571600 0.647800 
vt 0.571600 0.071400
vn 0.0000 -1.0000 0.0000 
vn 0.0000 -1.0000 0.0000 
vn 0.0000 -1.0000 0.0000 
vn 0.0000 -1.0000 0.0000 
g face4
usemtl Material4
f 13/13/13 14/14/14 15/15/15 16/16/16

g
v  5.93 -3.59 -2.26 
v  5.93  3.59 -2.26 
v  5.93  3.59  2.26 
v  5.93 -3.59  2.26 
#right 
vt 0.220700 0.651000
vt 0.220700 1.000000
vt 0.000000 1.000000 
vt 0.000000 0.651000
vn 1.0000 0.0000 0.0000 
vn 1.0000 0.0000 0.0000 
vn 1.0000 0.0000 0.0000 
vn 1.0000 0.0000 0.0000 
g face5
usemtl Material5
f 17/17/17 18/18/18 19/19/19 20/20/20

g
v -5.93 -3.59 -2.26 
v -5.93 -3.59  2.26
v -5.93  3.59  2.26 
v -5.93  3.59 -2.26 
#left
vt 0.798600 0.651000
vt 1.000000 0.651000
vt 1.000000 1.000000
vt 0.798600 1.000000 
vn -1.0000 0.0000 0.0000 
vn -1.0000 0.0000 0.0000 
vn -1.0000 0.0000 0.0000 
vn -1.0000 0.0000 0.0000
g face6
usemtl Material6
f 21/21/21 22/22/22 23/23/23 24/24/24 

